<?xml version="1.0" encoding="UTF-8" standalone="no"?>
<!-- Created with Inkscape (http://www.inkscape.org/) -->

<svg
   width="855.54144mm"
   height="243.72406mm"
   viewBox="0 0 855.54144 243.72406"
   version="1.1"
   id="svg5"
   sodipodi:docname="/tmp/ink_ext_XXXXXX.svgLYJ2U2"
   inkscape:export-filename="breather.svg"
   inkscape:export-xdpi="96"
   inkscape:export-ydpi="96"
   xmlns:inkscape="http://www.inkscape.org/namespaces/inkscape"
   xmlns:sodipodi="http://sodipodi.sourceforge.net/DTD/sodipodi-0.dtd"
   xmlns="http://www.w3.org/2000/svg"
   xmlns:svg="http://www.w3.org/2000/svg">
  <sodipodi:namedview
     id="namedview7"
     pagecolor="#ffffff"
     bordercolor="#ffffff"
     borderopacity="1"
     inkscape:showpageshadow="0"
     inkscape:pageopacity="0"
     inkscape:pagecheckerboard="0"
     inkscape:deskcolor="#ffffff"
     inkscape:document-units="mm"
     showgrid="false"
     inkscape:zoom="0.23579016"
     inkscape:cx="275.66884"
     inkscape:cy="2309.2567"
     inkscape:window-width="1600"
     inkscape:window-height="839"
     inkscape:window-x="0"
     inkscape:window-y="0"
     inkscape:window-maximized="1"
     inkscape:current-layer="layer1" />
  <defs
     id="defs2">
    <filter
       style="color-interpolation-filters:sRGB"
       inkscape:label="Tritone"
       id="filter519"
       x="-0.0014065664"
       y="-0.011644772"
       width="1.0028131"
       height="1.0232894">
      <feColorMatrix
         type="hueRotate"
         values="0"
         result="colormatrix1"
         id="feColorMatrix483" />
      <feColorMatrix
         in="colormatrix1"
         type="matrix"
         values="1 0 0 0 0 1 0 0 0 0 1 0 0 0 0 0 0 0 0 1 "
         result="colormatrix2"
         id="feColorMatrix485" />
      <feColorMatrix
         in="colormatrix1"
         type="matrix"
         values="0 1 0 0 0 0 1 0 0 0 0 1 0 0 0 0 0 0 0 1 "
         result="colormatrix3"
         id="feColorMatrix487" />
      <feColorMatrix
         in="colormatrix1"
         type="matrix"
         values="0 0 1 0 0 0 0 1 0 0 0 0 1 0 0 0 0 0 0 1 "
         result="colormatrix4"
         id="feColorMatrix489" />
      <feBlend
         in="colormatrix2"
         in2="colormatrix3"
         mode="darken"
         result="blend1"
         id="feBlend491" />
      <feBlend
         in="blend1"
         in2="colormatrix4"
         mode="darken"
         result="blend2"
         id="feBlend493" />
      <feBlend
         in="colormatrix2"
         in2="colormatrix3"
         mode="lighten"
         result="blend3"
         id="feBlend495" />
      <feBlend
         in="blend3"
         in2="colormatrix4"
         mode="lighten"
         result="blend4"
         id="feBlend497" />
      <feComponentTransfer
         in="blend4"
         result="componentTransfer"
         id="feComponentTransfer501">
        <feFuncR
           type="linear"
           slope="0"
           id="feFuncR499" />
      </feComponentTransfer>
      <feBlend
         in="blend2"
         in2="componentTransfer"
         mode="lighten"
         result="blend5"
         id="feBlend503" />
      <feColorMatrix
         in="blend5"
         type="matrix"
         values="-1 1 0 0 0 -1 1 0 0 0 -1 1 0 0 0 0 0 0 0 1 "
         result="colormatrix5"
         id="feColorMatrix505" />
      <feFlood
         flood-opacity="1"
         flood-color="rgb(251,163,0)"
         result="flood"
         id="feFlood507" />
      <feComposite
         in="colormatrix5"
         in2="flood"
         operator="arithmetic"
         k1="1"
         result="composite1"
         id="feComposite509"
         k2="0"
         k3="0"
         k4="0" />
      <feGaussianBlur
         stdDeviation="0.5"
         result="blur"
         id="feGaussianBlur511" />
      <feBlend
         in2="blur"
         mode="normal"
         result="blend6"
         id="feBlend513" />
      <feComposite
         in="blend2"
         in2="blend6"
         operator="arithmetic"
         k1="0.5"
         k2="1"
         k3="1.8"
         k4="0"
         result="composite2"
         id="feComposite515" />
      <feComposite
         in2="SourceGraphic"
         operator="in"
         result="composite3"
         id="feComposite517" />
    </filter>
    <clipPath
       id="clipPath4203">
      <path
         d="m 95,6 h 17 V 22.101562 H 95 Z m 0,0"
         id="path6225" />
    </clipPath>
    <clipPath
       id="clipPath9045">
      <path
         d="m 144,3 h 11.83984 V 21 H 144 Z m 0,0"
         id="path2170" />
    </clipPath>
  </defs>
  <g
     inkscape:label="Layer 1"
     inkscape:groupmode="layer"
     id="layer1"
     transform="translate(-183.14852,-495.62657)">
    <text
       xml:space="preserve"
       style="font-style:normal;font-weight:normal;font-size:133.153px;line-height:1.25;font-family:sans-serif;fill:#a18414;fill-opacity:1;stroke:none;stroke-width:3.32884;filter:url(#filter519)"
       x="171.28029"
       y="597.99164"
       id="text298"><tspan
         sodipodi:role="line"
         id="tspan296"
         style="fill:#a18414;fill-opacity:1;stroke-width:3.32884"
         x="171.28029"
         y="597.99164">No Breathers</tspan></text>
    <g
       inkscape:label=""
       transform="matrix(13.695529,0,0,13.695529,228.83431,632.6513)"
       id="g1574">
      <g
         id="g1572"
         transform="matrix(0.352778,0,0,0.352778,-0.325217,-0.00612951)">
        <g
           style="fill:#000000;fill-opacity:1"
           id="g38">
          <g
             id="use36"
             transform="translate(0,20.528)">
            <path
               style="stroke:none"
               d="m 10.0625,-17.09375 c -0.203125,-0.421875 -0.296875,-0.421875 -0.5,-0.421875 -0.296875,0 -0.3125,0.04687 -0.5,0.390625 L 1.046875,-0.421875 C 1.015625,-0.375 0.921875,-0.15625 0.921875,-0.125 0.921875,-0.03125 0.9375,0 1.390625,0 H 17.71875 c 0.453125,0 0.46875,-0.03125 0.46875,-0.125 0,-0.03125 -0.09375,-0.25 -0.125,-0.296875 z m -1.109375,1.453125 6.859375,14.25 h -13.75 z m 0,0"
               id="path81" />
          </g>
        </g>
        <g
           style="fill:#000000;fill-opacity:1"
           id="g42">
          <g
             id="use40"
             transform="translate(26.028934,20.528)">
            <path
               style="stroke:none"
               d="m 15.9375,-7.953125 c 0.375,0 0.734375,0 0.734375,-0.421875 0,-0.453125 -0.421875,-0.453125 -0.84375,-0.453125 H 1.984375 c -0.421875,0 -0.84375,0 -0.84375,0.453125 0,0.421875 0.375,0.421875 0.75,0.421875 z m -0.109375,4.40625 c 0.421875,0 0.84375,0 0.84375,-0.4375 0,-0.421875 -0.359375,-0.421875 -0.734375,-0.421875 H 1.890625 c -0.375,0 -0.75,0 -0.75,0.421875 0,0.4375 0.421875,0.4375 0.84375,0.4375 z m 0,0"
               id="path85" />
          </g>
        </g>
        <g
           style="fill:#000000;fill-opacity:1"
           id="g1543">
          <g
             id="use44"
             transform="translate(50.750999,20.528)">
            <path
               style="stroke:none"
               d="m 12.46875,-16.578125 c 0.01563,-0.09375 0.07813,-0.25 0.07813,-0.375 0,-0.25 -0.25,-0.25 -0.3125,-0.25 -0.01563,0 -1.234375,0.109375 -1.359375,0.125 -0.421875,0.03125 -0.78125,0.07813 -1.234375,0.109375 -0.625,0.04687 -0.796875,0.0625 -0.796875,0.515625 0,0.25 0.203125,0.25 0.546875,0.25 1.21875,0 1.234375,0.21875 1.234375,0.46875 0,0.140625 -0.04687,0.34375 -0.0625,0.421875 L 9.04688,-9.296875 c -0.28125,-0.640625 -0.9375,-1.625 -2.234375,-1.625 -2.796875,0 -5.828125,3.609375 -5.828125,7.28125 0,2.453125 1.4375,3.890625 3.125,3.890625 1.375,0 2.53125,-1.0625 3.21875,-1.890625 C 7.578125,-0.171875 8.75,0.25 9.484375,0.25 c 0.75,0 1.34375,-0.453125 1.796875,-1.34375 0.390625,-0.84375 0.734375,-2.34375 0.734375,-2.453125 0,-0.125 -0.09375,-0.21875 -0.25,-0.21875 -0.21875,0 -0.25,0.125 -0.34375,0.5 C 11.046875,-1.8125 10.578125,-0.25 9.5625,-0.25 c -0.71875,0 -0.765625,-0.640625 -0.765625,-1.140625 0,-0.09375 0,-0.609375 0.171875,-1.3125 z m -5.015625,13.625 c -0.125,0.421875 -0.125,0.46875 -0.46875,0.953125 -0.546875,0.6875 -1.625,1.75 -2.796875,1.75 -1.015625,0 -1.578125,-0.921875 -1.578125,-2.375 0,-1.359375 0.765625,-4.140625 1.234375,-5.1875 0.84375,-1.734375 2,-2.625 2.96875,-2.625 1.640625,0 1.953125,2.03125 1.953125,2.234375 0,0.03125 -0.0625,0.34375 -0.09375,0.390625 z m 0,0"
               id="path89" />
          </g>
        </g>
        <g
           style="fill:#000000;fill-opacity:1"
           id="g1548">
          <g
             id="g1546"
             transform="translate(63.362,11.533)">
            <path
               style="stroke:none"
               d="m 6.8125,-10.578125 c 0.03125,-0.34375 0.03125,-0.9375 -0.625,-0.9375 -0.390625,0 -0.703125,0.3125 -0.640625,0.640625 v 0.3125 L 5.890625,-6.71875 2.71875,-9.015625 C 2.5,-9.140625 2.453125,-9.1875 2.28125,-9.1875 c -0.34375,0 -0.671875,0.34375 -0.671875,0.6875 0,0.390625 0.25,0.5 0.5,0.625 L 5.625,-6.1875 2.203125,-4.53125 c -0.390625,0.1875 -0.59375,0.296875 -0.59375,0.671875 0,0.359375 0.328125,0.6875 0.671875,0.6875 0.171875,0 0.21875,0 0.84375,-0.46875 L 5.890625,-5.65625 5.53125,-1.484375 c 0,0.515625 0.4375,0.640625 0.640625,0.640625 0.296875,0 0.671875,-0.171875 0.671875,-0.640625 l -0.375,-4.171875 3.171875,2.3125 c 0.21875,0.125 0.265625,0.171875 0.453125,0.171875 0.34375,0 0.65625,-0.34375 0.65625,-0.6875 0,-0.375 -0.21875,-0.5 -0.515625,-0.65625 C 8.75,-5.25 8.703125,-5.25 6.734375,-6.171875 l 3.421875,-1.65625 C 10.5625,-8.03125 10.75,-8.125 10.75,-8.5 c 0,-0.375 -0.3125,-0.6875 -0.65625,-0.6875 -0.1875,0 -0.234375,0 -0.84375,0.46875 l -2.78125,2 z m 0,0"
               id="path93" />
          </g>
        </g>
        <g
           style="fill:#000000;fill-opacity:1"
           id="g1553">
          <g
             id="g1551"
             transform="translate(76.253998,20.528)">
            <path
               style="stroke:none"
               d="m 12.46875,-16.578125 c 0.01563,-0.09375 0.07813,-0.25 0.07813,-0.375 0,-0.25 -0.25,-0.25 -0.3125,-0.25 -0.01563,0 -1.234375,0.109375 -1.359375,0.125 -0.421875,0.03125 -0.78125,0.07813 -1.234375,0.109375 -0.625,0.04687 -0.796875,0.0625 -0.796875,0.515625 0,0.25 0.203125,0.25 0.546875,0.25 1.21875,0 1.234375,0.21875 1.234375,0.46875 0,0.140625 -0.04687,0.34375 -0.0625,0.421875 L 9.04688,-9.296875 c -0.28125,-0.640625 -0.9375,-1.625 -2.234375,-1.625 -2.796875,0 -5.828125,3.609375 -5.828125,7.28125 0,2.453125 1.4375,3.890625 3.125,3.890625 1.375,0 2.53125,-1.0625 3.21875,-1.890625 C 7.578125,-0.171875 8.75,0.25 9.484375,0.25 c 0.75,0 1.34375,-0.453125 1.796875,-1.34375 0.390625,-0.84375 0.734375,-2.34375 0.734375,-2.453125 0,-0.125 -0.09375,-0.21875 -0.25,-0.21875 -0.21875,0 -0.25,0.125 -0.34375,0.5 C 11.046875,-1.8125 10.578125,-0.25 9.5625,-0.25 c -0.71875,0 -0.765625,-0.640625 -0.765625,-1.140625 0,-0.09375 0,-0.609375 0.171875,-1.3125 z m -5.015625,13.625 c -0.125,0.421875 -0.125,0.46875 -0.46875,0.953125 -0.546875,0.6875 -1.625,1.75 -2.796875,1.75 -1.015625,0 -1.578125,-0.921875 -1.578125,-2.375 0,-1.359375 0.765625,-4.140625 1.234375,-5.1875 0.84375,-1.734375 2,-2.625 2.96875,-2.625 1.640625,0 1.953125,2.03125 1.953125,2.234375 0,0.03125 -0.0625,0.34375 -0.09375,0.390625 z m 0,0"
               id="path97" />
          </g>
        </g>
        <g
           clip-path="url(#clipPath4203)"
           clip-rule="nonzero"
           id="g1560">
          <g
             style="fill:#000000;fill-opacity:1"
             id="g1558">
            <g
               id="g1556"
               transform="translate(94.374001,20.528)">
              <path
                 style="stroke:none"
                 d="m 9.34375,-5.75 h 6.5625 c 0.34375,0 0.765625,0 0.765625,-0.421875 0,-0.4375 -0.390625,-0.4375 -0.765625,-0.4375 H 9.34375 V -13.1875 c 0,-0.34375 0,-0.765625 -0.421875,-0.765625 -0.453125,0 -0.453125,0.390625 -0.453125,0.765625 v 6.578125 h -6.5625 c -0.34375,0 -0.765625,0 -0.765625,0.421875 0,0.4375 0.390625,0.4375 0.765625,0.4375 h 6.5625 v 6.5625 c 0,0.359375 0,0.78125 0.421875,0.78125 0.453125,0 0.453125,-0.40625 0.453125,-0.78125 z m 0,0"
                 id="path101" />
            </g>
          </g>
        </g>
        <g
           style="fill:#000000;fill-opacity:1"
           id="g64">
          <g
             id="use62"
             transform="translate(117.724,20.528)">
            <path
               style="stroke:none"
               d="m 12.46875,-16.578125 c 0.01563,-0.09375 0.07813,-0.25 0.07813,-0.375 0,-0.25 -0.25,-0.25 -0.3125,-0.25 -0.01563,0 -1.234375,0.109375 -1.359375,0.125 -0.421875,0.03125 -0.78125,0.07813 -1.234375,0.109375 -0.625,0.04687 -0.796875,0.0625 -0.796875,0.515625 0,0.25 0.203125,0.25 0.546875,0.25 1.21875,0 1.234375,0.21875 1.234375,0.46875 0,0.140625 -0.04687,0.34375 -0.0625,0.421875 L 9.04688,-9.296875 c -0.28125,-0.640625 -0.9375,-1.625 -2.234375,-1.625 -2.796875,0 -5.828125,3.609375 -5.828125,7.28125 0,2.453125 1.4375,3.890625 3.125,3.890625 1.375,0 2.53125,-1.0625 3.21875,-1.890625 C 7.578125,-0.171875 8.75,0.25 9.484375,0.25 c 0.75,0 1.34375,-0.453125 1.796875,-1.34375 0.390625,-0.84375 0.734375,-2.34375 0.734375,-2.453125 0,-0.125 -0.09375,-0.21875 -0.25,-0.21875 -0.21875,0 -0.25,0.125 -0.34375,0.5 C 11.046875,-1.8125 10.578125,-0.25 9.5625,-0.25 c -0.71875,0 -0.765625,-0.640625 -0.765625,-1.140625 0,-0.09375 0,-0.609375 0.171875,-1.3125 z m -5.015625,13.625 c -0.125,0.421875 -0.125,0.46875 -0.46875,0.953125 -0.546875,0.6875 -1.625,1.75 -2.796875,1.75 -1.015625,0 -1.578125,-0.921875 -1.578125,-2.375 0,-1.359375 0.765625,-4.140625 1.234375,-5.1875 0.84375,-1.734375 2,-2.625 2.96875,-2.625 1.640625,0 1.953125,2.03125 1.953125,2.234375 0,0.03125 -0.0625,0.34375 -0.09375,0.390625 z m 0,0"
               id="path105" />
          </g>
        </g>
        <g
           style="fill:#000000;fill-opacity:1"
           id="g68">
          <g
             id="use66"
             transform="translate(130.336,11.533)">
            <path
               style="stroke:none"
               d="m 6.8125,-10.578125 c 0.03125,-0.34375 0.03125,-0.9375 -0.625,-0.9375 -0.390625,0 -0.703125,0.3125 -0.640625,0.640625 v 0.3125 L 5.890625,-6.71875 2.71875,-9.015625 C 2.5,-9.140625 2.453125,-9.1875 2.28125,-9.1875 c -0.34375,0 -0.671875,0.34375 -0.671875,0.6875 0,0.390625 0.25,0.5 0.5,0.625 L 5.625,-6.1875 2.203125,-4.53125 c -0.390625,0.1875 -0.59375,0.296875 -0.59375,0.671875 0,0.359375 0.328125,0.6875 0.671875,0.6875 0.171875,0 0.21875,0 0.84375,-0.46875 L 5.890625,-5.65625 5.53125,-1.484375 c 0,0.515625 0.4375,0.640625 0.640625,0.640625 0.296875,0 0.671875,-0.171875 0.671875,-0.640625 l -0.375,-4.171875 3.171875,2.3125 c 0.21875,0.125 0.265625,0.171875 0.453125,0.171875 0.34375,0 0.65625,-0.34375 0.65625,-0.6875 0,-0.375 -0.21875,-0.5 -0.515625,-0.65625 C 8.75,-5.25 8.703125,-5.25 6.734375,-6.171875 l 3.421875,-1.65625 C 10.5625,-8.03125 10.75,-8.125 10.75,-8.5 c 0,-0.375 -0.3125,-0.6875 -0.65625,-0.6875 -0.1875,0 -0.234375,0 -0.84375,0.46875 l -2.78125,2 z m 0,0"
               id="path109" />
          </g>
        </g>
        <g
           clip-path="url(#clipPath9045)"
           clip-rule="nonzero"
           id="g74">
          <g
             style="fill:#000000;fill-opacity:1"
             id="g72">
            <g
               id="use70"
               transform="translate(143.228,20.528)">
              <path
                 style="stroke:none"
                 d="m 12.46875,-16.578125 c 0.01563,-0.09375 0.07813,-0.25 0.07813,-0.375 0,-0.25 -0.25,-0.25 -0.3125,-0.25 -0.01563,0 -1.234375,0.109375 -1.359375,0.125 -0.421875,0.03125 -0.78125,0.07813 -1.234375,0.109375 -0.625,0.04687 -0.796875,0.0625 -0.796875,0.515625 0,0.25 0.203125,0.25 0.546875,0.25 1.21875,0 1.234375,0.21875 1.234375,0.46875 0,0.140625 -0.04687,0.34375 -0.0625,0.421875 L 9.04688,-9.296875 c -0.28125,-0.640625 -0.9375,-1.625 -2.234375,-1.625 -2.796875,0 -5.828125,3.609375 -5.828125,7.28125 0,2.453125 1.4375,3.890625 3.125,3.890625 1.375,0 2.53125,-1.0625 3.21875,-1.890625 C 7.578125,-0.171875 8.75,0.25 9.484375,0.25 c 0.75,0 1.34375,-0.453125 1.796875,-1.34375 0.390625,-0.84375 0.734375,-2.34375 0.734375,-2.453125 0,-0.125 -0.09375,-0.21875 -0.25,-0.21875 -0.21875,0 -0.25,0.125 -0.34375,0.5 C 11.046875,-1.8125 10.578125,-0.25 9.5625,-0.25 c -0.71875,0 -0.765625,-0.640625 -0.765625,-1.140625 0,-0.09375 0,-0.609375 0.171875,-1.3125 z m -5.015625,13.625 c -0.125,0.421875 -0.125,0.46875 -0.46875,0.953125 -0.546875,0.6875 -1.625,1.75 -2.796875,1.75 -1.015625,0 -1.578125,-0.921875 -1.578125,-2.375 0,-1.359375 0.765625,-4.140625 1.234375,-5.1875 0.84375,-1.734375 2,-2.625 2.96875,-2.625 1.640625,0 1.953125,2.03125 1.953125,2.234375 0,0.03125 -0.0625,0.34375 -0.09375,0.390625 z m 0,0"
                 id="path113" />
            </g>
          </g>
        </g>
      </g>
    </g>
  </g>
</svg>
